<svg xmlns="http://www.w3.org/2000/svg" viewBox="0 0 660 660">
    <g transform="translate(660, 660) scale(-1, -1)">
        <path fill="currentColor" fill-rule="evenodd" d="m 428.398,274.635 c -45.335,55.757 -57.022,115.276 -59.444,175.842 17.552,-78.618 60.789,-147.473 123.632,-208.899 -21.397,11.02 -42.79,22.039 -64.188,33.057 m 54.446,48.482 c -47.223,35.635 -68.293,80.905 -82.161,128.844 29.518,-59.387 77.649,-105.908 139.98,-142.627 -19.274,4.594 -38.544,9.186 -57.819,13.783 m -448.123,9.61 c 44.731,57.67 89.463,115.343 134.194,173.014 -6.549,-12.688 -13.098,-25.38 -19.644,-38.071 -6.863,-13.303 -1.984,-29.654 11.048,-37.019 11,-6.218 22.557,-11.521 38.716,-9.241 -28.722,-15.28 -61.632,16.118 -89.687,-10.709 C 84.471,384.709 59.597,358.717 34.721,332.727 M 170.685,63.642 C 255.129,104.244 393.12,251.264 283.133,405.651 208.17,345.19 183.404,187.682 58.247,224.27 c 3.204,-6.151 11.415,-8.349 13.669,-14.113 17.631,-45.061 69.207,-41.804 87.594,-0.754 8.129,18.151 25.34,30.659 38.008,45.991 7.871,-69.478 2.766,-130.888 -26.833,-191.752 m -46.347,182.384 c -15.729,-23.538 -43.505,-19.299 -77.306,-10.375 -8.697,9.37 -12.043,19.407 -10.04,30.12 4.463,12.27 19.968,19.018 13.387,36.809 57.782,2.401 92.642,-23.649 73.959,-56.554 m 22.756,1.842 c 43.504,27.662 35.474,82.77 53.209,124.153 -92.14,-17.514 -70.164,-69.497 -64.587,-91.693 6.925,2.551 13.267,6.601 19.073,12.048 1.382,-15.765 -1.487,-30.528 -7.695,-44.508 M 98.146,360.699 c 9.44,11.83 11.691,27.26 28.319,35.499 l 22.021,10.788 c -7.423,-0.272 -14.53,4.295 -22.266,-0.82 -2.682,-1.775 -4.351,-4.39 -5.577,-7.218 -1.338,0.593 -4.097,4.09 -4.438,4.642 12.932,20.758 39.401,6.328 57.867,6.563 -37.314,-8.48 -48.767,-41.074 -75.926,-49.454 m 157.33,101.946 c 26.884,29.894 45.07,83.549 80.65,89.685 42.839,-36.367 10.709,-117.576 -11.039,-147.249 5.273,28.264 6.784,55.957 -2.68,81.991 -20.804,-16.007 -41.943,-24.988 -66.931,-24.427 M 654.735,351.267 616.69,375.571 c -41.278,4.689 -75.876,21.566 -108.28,42.467 23.499,-9.748 47.821,-16.267 72.891,-19.857 l -22.987,14.686 c -1.401,0.895 -2.783,1.793 -4.167,2.688 -29.593,3.689 -54.516,15.912 -77.88,30.983 17.352,-7.2 35.318,-11.998 53.838,-14.621 -46.439,33.19 -84.184,70.056 -120.425,117.19 -9.463,12.304 -19.972,22.714 -31.173,31.355 -21.607,3.22 -43.214,3.46 -64.827,0.353 9.389,3.138 18.883,5.873 28.549,7.93 -21.924,0.231 -43.434,-2.508 -64.486,-8.584 20.5,10.174 41.834,18.315 65.371,21.068 -16.708,7.13 -34.032,11.177 -51.063,12.457 -16.473,-5.873 -32.106,-13.544 -46.825,-23.182 8.917,8.47 18.241,16.446 28.322,23.496 -5.663,-0.238 -11.252,-0.787 -16.738,-1.625 -25.733,-11.939 -48.581,-27.625 -68.089,-47.666 8.606,12.791 18.001,24.963 29.047,35.843 -36.285,-17.34 -60.725,-50.31 -56.879,-93.337 C 112.786,445.414 64.68,383.617 16.578,321.813 5.536,307.624 6.773,287.698 19.484,274.984 c 2.73,-2.729 5.462,-5.461 8.194,-8.192 -1.768,-22.115 8.257,-40.066 29.242,-54.149 5.161,-4.867 10.995,-25.122 16.152,-29.984 22.787,-21.471 58.491,-21.068 80.784,0.913 12.312,12.136 23.959,39.672 36.273,51.811 5.782,-86.873 -17.216,-164.374 -64.979,-214.432 45.014,28.077 98.391,45.268 153.723,59.906 42.778,39.045 92.217,59.669 143.842,74.251 -33.2,-16.241 -63.53,-36.686 -91.27,-60.935 29.114,7.212 58.206,14.44 86.396,22.856 25.196,23.741 54.036,41.296 84.357,56.345 -18.216,-13.574 -34.888,-28.7 -50.123,-45.263 98.171,34.519 179.727,90.672 202.66,223.156"/>
    </g>
</svg>
